#!OML:ASF I:\golf\golf\golf 2\Subject 1\2002-09-07\Subject1.ASF
:FULLY-SPECIFIED
:DEGREES
295
root -5.50083 18.0951 -3.66078 -170.143 5.02097 -177.709
lowerback -6.80365 11.8569 14.4399
upperback -11.6662 19.4502 4.06846
thorax -6.42378 10.1224 -2.71424
lowerneck -7.31725 -20.3233 -3.05139
upperneck 13.3051 -28.6632 2.38965
head 5.98886 -14.2088 -1.08497
rclavicle -1.46306e-013 -4.6118e-014
rhumerus 94.7072 37.0803 -54.7992
rradius 69.7368
rwrist 10.0038
rhand -23.5587 26.7557
rfingers 7.12502
rthumb 2.90354 -3.20433
lclavicle -1.46306e-013 -4.6118e-014
lhumerus 52.8179 9.73431 73.4827
lradius 84.2522
lwrist 31.7134
lhand -26.2569 11.307
lfingers 7.12502
lthumb -179.702 -138.713
rfemur 12.9958 -10.2041 16.7288
rtibia 21.1763
rfoot 12.7052 -34.1272
rtoes 17.9877
lfemur -21.8436 -15.9146 -17.0904
ltibia 21.187
lfoot 31.582 -46.2312
ltoes 43.8213
296
root -5.49466 18.0952 -3.71789 -169.883 4.2541 -177.534
lowerback -7.09737 11.8989 14.5349
upperback -11.9103 19.5788 3.88571
thorax -6.45426 10.2052 -2.88685
lowerneck -7.34313 -20.2894 -3.50406
upperneck 13.0795 -28.5282 2.64588
head 6.01624 -14.1313 -0.960941
rclavicle 1.43125e-014 6.99722e-014
rhumerus 95.7783 36.7381 -54.4165
rradius 71.2936
rwrist 10.7039
rhand -24.5284 27.6803
rfingers 7.12502
rthumb 1.96705 -2.29041
lclavicle 1.43125e-014 6.99722e-014
lhumerus 54.1126 10.6856 72.8013
lradius 85.2937
lwrist 30.6954
lhand -26.7085 11.2024
lfingers 7.12502
lthumb -180.139 -138.818
rfemur 13.3658 -10.278 17.0994
rtibia 20.4375
rfoot 13.6531 -34.0625
rtoes 17.7653
lfemur -22.1323 -16.2075 -16.8265
ltibia 21.4089
lfoot 33.9942 -44.7543
ltoes 46.4931
297
root -5.48693 18.0986 -3.77441 -169.705 3.57197 -177.463
lowerback -7.40374 11.9556 14.4495
upperback -12.041 19.6809 3.75524
thorax -6.40933 10.2871 -2.90747
lowerneck -7.5308 -20.248 -3.60296
upperneck 12.7148 -28.2857 2.48643
head 5.91018 -14.011 -0.961182
rclavicle 1.25632e-013 1.1291e-013
rhumerus 96.9306 36.3621 -53.8971
rradius 72.8524
rwrist 11.3895
rhand -25.3642 28.4533
rfingers 7.12502
rthumb 1.15978 -1.52332
lclavicle 1.25632e-013 1.1291e-013
lhumerus 55.3243 11.5547 72.0435
lradius 86.268
lwrist 28.9615
lhand -27.6264 10.7166
lfingers 7.12502
lthumb -181.025 -139.306
rfemur 13.77 -10.1917 17.3907
rtibia 19.7131
rfoot 15.0069 -33.8179
rtoes 17.1312
lfemur -22.3545 -16.504 -16.6869
ltibia 21.6439
lfoot 35.4079 -43.9161
ltoes 48.1167
298
root -5.47735 18.1015 -3.82749 -169.497 2.91777 -177.335
lowerback -7.58538 12.0129 14.4674
upperback -12.2704 19.8369 3.56009
thorax -6.49167 10.3778 -3.08163
lowerneck -7.71614 -20.2098 -3.69549
upperneck 12.4356 -28.0813 2.34991
head 5.83542 -13.9094 -0.96661
rclavicle 6.75868e-014 4.6118e-014
rhumerus 97.8513 36.0525 -53.6391
rradius 74.4461
rwrist 11.961
rhand -26.1612 29.0356
rfingers 7.12502
rthumb 0.39006 -0.943787
lclavicle 6.75868e-014 4.6118e-014
lhumerus 56.393 12.4246 71.2558
lradius 87.3859
lwrist 27.7897
lhand -27.8959 10.3209
lfingers 7.12502
lthumb -181.285 -139.703
rfemur 14.0999 -10.0252 17.7926
rtibia 19.0205
rfoot 15.9931 -33.6034
rtoes 17.0268
lfemur -22.6332 -16.741 -16.4627
ltibia 21.8826
lfoot 35.6048 -44.4152
ltoes 48.1057
299
root -5.46946 18.098 -3.87679 -169.296 2.26485 -177.185
lowerback -7.71662 11.9858 14.5557
upperback -12.5909 19.9639 3.43227
thorax -6.72733 10.4552 -3.26519
lowerneck -7.40386 -20.1159 -4.05266
upperneck 12.1467 -27.8451 2.33263
head 5.73196 -13.8136 -0.863513
rclavicle -1.82882e-014 -1.27222e-014
rhumerus 98.5309 36.0491 -53.5476
rradius 75.995
rwrist 12.419
rhand -26.4867 29.5525
rfingers 7.12502
rthumb 0.075627 -0.427242
lclavicle -1.82882e-014 -1.27222e-014
lhumerus 57.005 13.2374 70.37
lradius 88.57
lwrist 25.9806
lhand -28.4365 10.3582
lfingers 7.12502
lthumb -181.807 -139.67
rfemur 14.4152 -9.9789 18.1486
rtibia 18.3568
rfoot 16.9955 -33.3414
rtoes 16.6586
lfemur -22.899 -16.9691 -16.2121
ltibia 22.1186
lfoot 35.7974 -44.9175
ltoes 48.0427
300
root -5.46232 18.0937 -3.92639 -169.221 1.68351 -177.081
lowerback -7.88142 11.9286 14.5958
upperback -12.825 20.0273 3.40132
thorax -6.90128 10.5115 -3.31832
lowerneck -6.78016 -19.9695 -4.48395
upperneck 11.726 -27.5657 2.4129
head 5.56017 -13.7051 -0.68304
rclavicle 1.03368e-013 3.49861e-014
rhumerus 99.2491 36.0368 -53.2462
rradius 77.5419
rwrist 12.6116
rhand -26.9792 29.7688
rfingers 7.12502
rthumb -0.399998 -0.210614
lclavicle 1.03368e-013 3.49861e-014
lhumerus 57.5948 14.2573 69.7594
lradius 89.8139
lwrist 24.989
lhand -28.3762 10.0996
lfingers 7.12502
lthumb -181.749 -139.928
rfemur 14.8264 -9.99702 18.3583
rtibia 17.7455
rfoot 18.4397 -32.8071
rtoes 15.4736
lfemur -23.0101 -17.2245 -16.0509
ltibia 22.3569
lfoot 36.1663 -45.036
ltoes 48.371
301
root -5.45637 18.0941 -3.97699 -169.131 1.1179 -176.964
lowerback -8.05101 11.9495 14.6807
upperback -13.0657 20.1488 3.22288
thorax -6.99995 10.581 -3.51678
lowerneck -6.44173 -19.8923 -4.53401
upperneck 11.3983 -27.419 2.43587
head 5.40848 -13.6451 -0.598889
rclavicle -1.27222e-014 1.59028e-015
rhumerus 99.9483 35.6976 -52.9297
rradius 79.0119
rwrist 12.8307
rhand -29.6984 30.6804
rfingers 7.12502
rthumb -3.02615 0.722091
lclavicle -1.27222e-014 1.59028e-015
lhumerus 58.3901 15.1411 69.1708
lradius 91.1323
lwrist 24.3325
lhand -28.3166 9.61314
lfingers 7.12502
lthumb -181.692 -140.414
rfemur 15.1716 -9.98923 18.5906
rtibia 17.2036
rfoot 19.3592 -32.4927
rtoes 15.4241
lfemur -23.1229 -17.529 -15.8657
ltibia 22.5797
lfoot 36.2621 -45.2567
ltoes 48.47
302
root -5.45293 18.0923 -4.022 -168.951 0.565973 -176.906
lowerback -8.19864 11.9874 14.711
upperback -13.3375 20.3017 2.98723
thorax -7.13369 10.6642 -3.75473
lowerneck -6.30744 -19.895 -4.43131
upperneck 11.1309 -27.3586 2.28489
head 5.26577 -13.6247 -0.604562
rclavicle -3.65764e-014 -5.40694e-014
rhumerus 100.742 35.4077 -52.6055
rradius 80.2623
rwrist 13.3992
rhand -30.9388 31.7516
rfingers 7.12502
rthumb -4.22405 1.81373
lclavicle -3.65764e-014 -5.40694e-014
lhumerus 59.1722 15.914 68.706
lradius 92.5571
lwrist 23.4624
lhand -28.449 9.32662
lfingers 7.12502
lthumb -181.82 -140.701
rfemur 15.3975 -9.96079 18.7798
rtibia 16.6506
rfoot 20.1468 -32.3645
rtoes 15.7932
lfemur -23.3461 -17.8597 -15.7081
ltibia 22.8036
lfoot 36.3995 -45.4533
ltoes 48.5297
303
root -5.45067 18.0875 -4.061 -168.811 0.0960141 -176.826
lowerback -8.33546 12.0244 14.7387
upperback -13.5665 20.47 2.8546
thorax -7.26438 10.7647 -3.88811
lowerneck -6.19205 -19.9301 -4.62012
upperneck 11.2174 -27.3595 2.11204
head 5.27474 -13.6411 -0.624834
rclavicle -1.43125e-013 -3.97569e-015
rhumerus 101.377 34.9767 -52.0947
rradius 81.7349
rwrist 13.9732
rhand -32.2516 32.5083
rfingers 7.12502
rthumb -5.49168 2.59943
lclavicle -1.43125e-013 -3.97569e-015
lhumerus 59.762 16.7453 68.3236
lradius 94.0642
lwrist 22.514
lhand -28.731 9.40958
lfingers 7.12502
lthumb -182.092 -140.621
rfemur 15.6419 -9.74652 19.0228
rtibia 16.0793
rfoot 20.928 -32.5048
rtoes 16.3612
lfemur -23.5445 -18.0046 -15.5773
ltibia 23.0494
lfoot 36.9489 -45.4515
ltoes 48.8622
304
root -5.44835 18.0841 -4.10134 -168.758 -0.395201 -176.552
lowerback -8.65199 16.7878 14.221
upperback -14.2313 19.2402 1.82312
thorax -7.04159 7.21037 -3.96206
lowerneck -6.27051 -19.9172 -4.77553
upperneck 11.4828 -27.3139 1.95964
head 5.36807 -13.6268 -0.672997
rclavicle -8.74653e-015 1.11319e-014
rhumerus 102.263 34.6451 -51.4691
rradius 83.1403
rwrist 14.6421
rhand -33.6105 32.8311
rfingers 7.12502
rthumb -6.80356 2.9604
lclavicle -8.74653e-015 1.11319e-014
lhumerus 60.2844 17.7193 67.8595
lradius 95.6512
lwrist 21.8372
lhand -29.4267 9.50154
lfingers 7.12502
lthumb -182.764 -140.537
rfemur 15.9432 -9.53921 19.4635
rtibia 15.5941
rfoot 21.5305 -32.6373
rtoes 17.078
lfemur -23.6431 -17.9713 -15.2997
ltibia 23.2842
lfoot 38.0411 -45.0534
ltoes 49.6743
305
root -5.44476 18.0789 -4.14431 -168.727 -0.901461 -176.317
lowerback -8.84796 16.7799 14.3889
upperback -14.1908 19.1802 1.83169
thorax -6.85759 7.18552 -3.97732
lowerneck -6.44799 -19.8363 -4.73341
upperneck 10.9652 -27.109 2.03268
head 5.23005 -13.5093 -0.621811
rclavicle -9.46215e-014 -1.20861e-013
rhumerus 103.486 34.2824 -50.6453
rradius 84.4887
rwrist 14.9191
rhand -34.8658 33.0377
rfingers 7.12502
rthumb -8.01523 3.20971
lclavicle -9.46215e-014 -1.20861e-013
lhumerus 61.0622 18.833 67.6811
lradius 97.2347
lwrist 21.186
lhand -30.0902 9.81229
lfingers 7.12502
lthumb -183.405 -140.235
rfemur 16.2559 -9.59662 19.753
rtibia 15.1608
rfoot 22.428 -32.1834
rtoes 16.533
lfemur -23.7087 -17.9578 -15.0609
ltibia 23.4915
lfoot 39.4372 -44.2495
ltoes 50.7517
306
root -5.43677 18.0731 -4.18901 -168.697 -1.2661 -176.351
lowerback -9.10443 16.7951 14.2122
upperback -14.1535 19.1621 1.80709
thorax -6.72145 7.21118 -3.86332
lowerneck -6.35883 -19.7749 -4.72511
upperneck 10.2627 -26.9371 2.13408
head 5.00192 -13.4172 -0.522431
rclavicle -9.78021e-014 -7.15625e-015
rhumerus 104.495 33.8735 -49.8269
rradius 85.7485
rwrist 14.8303
rhand -35.8835 33.5974
rfingers 7.12502
rthumb -8.99743 3.8093
lclavicle -9.78021e-014 -7.15625e-015
lhumerus 61.8262 19.7605 67.7519
lradius 98.7179
lwrist 20.2929
lhand -30.6145 10.1962
lfingers 7.12502
lthumb -183.911 -139.86
rfemur 16.5618 -9.499 19.7762
rtibia 14.6993
rfoot 23.5121 -31.6204
rtoes 15.3391
lfemur -23.7506 -18.0061 -15.0881
ltibia 23.695
lfoot 40.1034 -43.9852
ltoes 51.2158
307
root -5.42701 18.0697 -4.23273 -168.699 -1.51968 -176.461
lowerback -9.23961 16.8337 13.9558
upperback -14.2736 19.1973 1.70566
thorax -6.81807 7.23341 -3.83309
lowerneck -6.19872 -19.7745 -4.78677
upperneck 10.2167 -26.9275 2.10455
head 4.966 -13.4204 -0.503205
rclavicle -3.02153e-014 -3.02153e-014
rhumerus 105.182 33.5012 -49.2556
rradius 86.8765
rwrist 14.7194
rhand -37.0843 34.1042
rfingers 7.12502
rthumb -10.1559 4.36932
lclavicle -3.02153e-014 -3.02153e-014
lhumerus 62.268 20.5163 67.5177
lradius 100.095
lwrist 19.5066
lhand -31.5951 10.4376
lfingers 7.12502
lthumb -184.858 -139.638
rfemur 16.8489 -9.01522 19.842
rtibia 14.2895
rfoot 24.3097 -31.5897
rtoes 15.7068
lfemur -23.7353 -18.0932 -15.1924
ltibia 23.8748
lfoot 40.2124 -44.167
ltoes 51.345
